# xmcd CD database file generated by GCD 2.95
# 
# Track frame offsets:
#       150
#       17747
#       32725
#       49982
#       63487
#       82015
#       98372
#       107447
#       120625
#       135355
#       148300
# 
# Disc length: 2201 seconds
# 
# Revision: 3
# Processed by: cddbd v1.4PL0 Copyright (c) Steve Scherf et al.
# Submitted via: GCD 2.95
# 
DISCID=8f08970b
DTITLE=BR549 - This is BR549
DYEAR=2001
DGENRE=Country
TTITLE0=Too Lazy to Work, Too Nervous to Steal
TTITLE1=The Price of Love
TTITLE2=The Game
TTITLE3=Psychic Lady
TTITLE4=Play That Fast Thing (One More Time)
TTITLE5=A Little Good News
TTITLE6=While You Were Gone
TTITLE7=Look Me Up
TTITLE8=Let's See How Far You Get
TTITLE9=Fool of the Century
TTITLE10=Different Drum
EXTD=
EXTT0=
EXTT1=
EXTT2=
EXTT3=
EXTT4=
EXTT5=
EXTT6=
EXTT7=
EXTT8=
EXTT9=
EXTT10=
PLAYORDER=
